# xmcd CD database file
#
# Track frame offsets:
#	150
#	8913
#	24266
#	43440
#	56898
#	79398
#	102296
#	130940
#	147379
#	163308
#	181073
#	182177
#	199955
#	219293
#	239820
#	262187
#	282539
#	294662
#	312965
#
# Disc length: 4430 seconds
#
# Revision: 0
# Processed by: cddbd v1.5.2PL0 Copyright (c) Steve Scherf et al.
# Submitted via: CDex 1.70beta2
#
DISCID=34114c13
DTITLE=Country - The Ultimative Line Dance CD
DYEAR=2007
DGENRE=Country
TTITLE0=Gary Lee and Showdown - The Rodeo Song 
TTITLE1=Clay Walker - Bury the Shovel
TTITLE2=Tracy Byrd - Watermelon Crawl
TTITLE3=Travis Tritt - Trouble
TTITLE4=Rednex - Cotton Eyed Joe
TTITLE5=Texas Style Mix - Super Electric Slide
TTITLE6=Clarence Carter - Strokin'
TTITLE7=Charlie Daniels - Drinkin' My Baby Goodbye
TTITLE8=Hank Williams Jr. - Hog Wild
TTITLE9=The Tractors - Baby Likes To Rock It
TTITLE10=Line Dance Intro - Spacecraft
TTITLE11=The Grid - Swamp Thing
TTITLE12=Twister Alley - Dance
TTITLE13=Steve Earl - Copperhead Road
TTITLE14=Ronnie McDowell - Funky Cowboy
TTITLE15=Garth Brooks - Ain't Going Down
TTITLE16=Hank Williams Jr. - I Really Like Girls
TTITLE17=Clay Walker - Live Laugh Love
TTITLE18=Travis Tritt - Put Some Drive In Your Country
EXTD=YEAR: 2007
EXTT0=
EXTT1=
EXTT2=
EXTT3=
EXTT4=
EXTT5=
EXTT6=
EXTT7=
EXTT8=
EXTT9=
EXTT10=
EXTT11=
EXTT12=
EXTT13=
EXTT14=
EXTT15=
EXTT16=
EXTT17=
EXTT18=
PLAYORDER=
